<svg width="984px" height="984px" viewBox="0 0 984 984" version="1.1" xmlns="http://www.w3.org/2000/svg" xmlns:xlink="http://www.w3.org/1999/xlink">
    <g id="waas" stroke="none" stroke-width="1" fill="none" fill-rule="evenodd">
        <path d="M160.376147,530.662517 C139.733871,530.662517 123,513.949559 123,493.33308 C123,472.716602 139.733871,456.003644 160.376147,456.003644 L234.605547,456.003644 C248.564275,379.33436 310.212978,339.003767 419.551654,335.011865 C419.76829,335.003956 419.985054,335 420.201835,335 C430.031489,335 437.999999,342.958551 437.999999,352.775921 L438,631.22385 C438,631.44036 437.996039,631.656853 437.98812,631.873219 C437.629035,641.684037 429.374748,649.346544 419.551654,648.987907 C311.48754,645.042539 250.008035,605.600742 235.113139,530.662519 L160.376147,530.662517 Z M504.490978,591.545468 C488.755845,591.545468 476,578.811786 476,563.103993 C476,547.396199 488.755845,534.662517 504.490978,534.662517 L545.857823,534.662517 L545.857823,450.226051 L504.490978,450.226051 C488.755845,450.226051 476,437.492369 476,421.784576 C476,406.076782 488.755845,393.3431 504.490978,393.3431 L545.857823,393.3431 L545.857823,352.775921 C545.857823,342.958551 553.830226,335 563.664683,335 C563.881571,335 564.09844,335.003956 564.315182,335.011865 C673.707279,339.003767 735.386102,379.33436 749.351651,456.003644 L823.605592,456.003644 C844.257953,456.003644 861,472.716602 861,493.33308 C861,513.949559 844.257953,530.662517 823.605592,530.662517 L748.843819,530.662517 C733.941637,605.600742 672.432095,645.042539 564.315182,648.987907 C554.487289,649.346544 546.228969,641.684037 545.869708,631.873219 C545.861785,631.656853 545.857822,631.44036 545.857822,631.22385 L545.857823,591.545468 L504.490978,591.545468 Z M168.5,0 L815.5,0 C908.55998,-1.89290832e-14 984,75.4400197 984,168.5 L984,815.5 C984,908.55998 908.55998,984 815.5,984 L168.5,984 C75.4400197,984 -9.00114414e-14,908.55998 -1.13686838e-13,815.5 L-1.13686838e-13,168.5 C-1.23151379e-13,75.4400197 75.4400197,3.31399379e-14 168.5,0 Z M168.5,84 C121.831939,84 84,121.831939 84,168.5 L84,815.5 C84,862.168061 121.831939,900 168.5,900 L815.5,900 C862.168061,900 900,862.168061 900,815.5 L900,168.5 C900,121.831939 862.168061,84 815.5,84 L168.5,84 Z" id="Shape" fill="#EF5722" fill-rule="nonzero"></path>
    </g>
</svg>
